<svg xmlns="http://www.w3.org/2000/svg" version="1" width="35" height="35" viewBox="0 0 128 128">
  <g>
    <path d="M38.52 33.37L21.36 16.2A63.6 63.6 0 0 1 59.5.16v24.3a39.5 39.5 0 0 0-20.98 8.92z"/>
    <path d="M67.64 24.32V.05a63.6 63.6 0 0 1 38.32 15.63L88.78 32.86a39.5 39.5 0 0 0-21.15-8.53zM94.63 38.52l17.17-17.16a63.6 63.6 0 0 1 16.04 38.14h-24.3a39.5 39.5 0 0 0-8.92-20.98zM103.68 67.64h24.27a63.6 63.6 0 0 1-15.63 38.32L95.14 88.78a39.5 39.5 0 0 0 8.53-21.15zM89.48 94.63l17.16 17.17a63.6 63.6 0 0 1-38.14 16.04v-24.3a39.5 39.5 0 0 0 20.98-8.92zM60.36 103.68v24.27a63.6 63.6 0 0 1-38.32-15.63l17.18-17.18a39.5 39.5 0 0 0 21.15 8.53zM33.37 89.48L16.2 106.64A63.6 63.6 0 0 1 .16 68.5h24.3a39.5 39.5 0 0 0 8.92 20.98zM24.32 60.36H.05a63.6 63.6 0 0 1 15.63-38.32l17.18 17.18a39.5 39.5 0 0 0-8.53 21.15z" fill="silver"/>
    <animateTransform attributeName="transform" type="rotate" values="0 64 64;45 64 64;90 64 64;135 64 64;180 64 64;225 64 64;270 64 64;315 64 64" calcMode="discrete" dur="720ms" repeatCount="indefinite"/>
  </g>
</svg>
